<svg width="32" height="44" viewBox="0 0 32 44" fill="none" xmlns="http://www.w3.org/2000/svg">
<path d="M2.25391 14.3816H29.1472" stroke="#F7F3EE" stroke-width="3.8419" stroke-linecap="round"/>
<path d="M6.24362 16.4389C6.22489 16.1758 6.26055 15.9117 6.34836 15.663C6.43617 15.4143 6.57426 15.1863 6.75402 14.9933C6.93379 14.8003 7.15137 14.6464 7.39323 14.5411C7.63508 14.4359 7.89601 14.3816 8.15977 14.3816H23.2431C23.5068 14.3816 23.7678 14.4359 24.0096 14.5411C24.2515 14.6464 24.469 14.8003 24.6488 14.9933C24.8286 15.1863 24.9667 15.4143 25.0545 15.663C25.1423 15.9117 25.1779 16.1758 25.1592 16.4389L23.513 39.4903C23.4785 39.975 23.2616 40.4285 22.906 40.7597C22.5505 41.0908 22.0827 41.2749 21.5968 41.2749H9.80602C9.32015 41.2749 8.85233 41.0908 8.49678 40.7597C8.14123 40.4285 7.92437 39.975 7.88987 39.4903L6.24362 16.4389V16.4389Z" stroke="#F7F3EE" stroke-width="3.8419"/>
<path d="M15.7007 8.61832V4.77642C15.7007 4.26695 15.9031 3.77835 16.2633 3.4181C16.6236 3.05785 17.1122 2.85547 17.6216 2.85547H20.5031" stroke="#F7F3EE" stroke-width="3.8419" stroke-linecap="round"/>
<path d="M6.78941 10.2229C6.86419 9.7745 7.09554 9.36718 7.44234 9.07332C7.78913 8.77945 8.22891 8.61809 8.68347 8.61792H22.7179C23.1727 8.61786 23.6127 8.77912 23.9597 9.07301C24.3066 9.36689 24.5381 9.77434 24.6129 10.2229L25.3054 14.3808H6.09595L6.78941 10.2229Z" stroke="#F7F3EE" stroke-width="3.8419"/>
</svg>
